<mxfile host="65bd71144e">
    <diagram id="i1ETuKzXT6xX0Mm6Qw_m" name="Page-1">
        <mxGraphModel dx="1871" dy="1612" grid="1" gridSize="10" guides="1" tooltips="1" connect="1" arrows="1" fold="1" page="0" pageScale="1" pageWidth="1169" pageHeight="827" background="#CCCCCC" math="0" shadow="0">
            <root>
                <mxCell id="0"/>
                <mxCell id="1" parent="0"/>
                <mxCell id="105" value="" style="rounded=0;whiteSpace=wrap;html=1;strokeColor=#000000;fillColor=#E6E6E6;strokeWidth=2;" vertex="1" parent="1">
                    <mxGeometry x="880" y="-80" width="160" height="800" as="geometry"/>
                </mxCell>
                <mxCell id="119" value="" style="rounded=0;whiteSpace=wrap;html=1;fillColor=#FFFFFF;strokeColor=#000000;strokeWidth=2;" vertex="1" parent="1">
                    <mxGeometry x="938.75" width="40" height="40" as="geometry"/>
                </mxCell>
                <mxCell id="3" value="" style="rounded=0;whiteSpace=wrap;html=1;strokeColor=#000000;fillColor=#E6E6E6;strokeWidth=2;" vertex="1" parent="1">
                    <mxGeometry x="240" y="-80" width="320" height="800" as="geometry"/>
                </mxCell>
                <mxCell id="2" value="" style="rounded=0;whiteSpace=wrap;html=1;fillColor=#FFFFFF;strokeColor=#000000;strokeWidth=2;" vertex="1" parent="1">
                    <mxGeometry x="360" y="-40" width="80" height="560" as="geometry"/>
                </mxCell>
                <mxCell id="4" value="" style="endArrow=blockThin;startArrow=blockThin;html=1;endSize=10;startSize=10;strokeWidth=3;startFill=1;endFill=1;strokeColor=#009900;" edge="1" parent="1">
                    <mxGeometry width="50" height="50" relative="1" as="geometry">
                        <mxPoint x="240" y="-200" as="sourcePoint"/>
                        <mxPoint x="560" y="-200" as="targetPoint"/>
                    </mxGeometry>
                </mxCell>
                <mxCell id="5" value="&lt;b&gt;&lt;font color=&quot;#009900&quot; style=&quot;font-size: 20px;&quot;&gt;8 cm&lt;/font&gt;&lt;/b&gt;" style="text;html=1;strokeColor=none;fillColor=none;align=center;verticalAlign=middle;whiteSpace=wrap;rounded=0;strokeWidth=2;" vertex="1" parent="1">
                    <mxGeometry x="370" y="-240" width="60" height="30" as="geometry"/>
                </mxCell>
                <mxCell id="6" value="" style="endArrow=blockThin;startArrow=blockThin;html=1;endSize=10;startSize=10;strokeWidth=3;startFill=1;endFill=1;strokeColor=#009900;" edge="1" parent="1">
                    <mxGeometry width="50" height="50" relative="1" as="geometry">
                        <mxPoint x="760" y="720" as="sourcePoint"/>
                        <mxPoint x="760" y="-80" as="targetPoint"/>
                    </mxGeometry>
                </mxCell>
                <mxCell id="7" value="&lt;b&gt;&lt;font color=&quot;#009900&quot; style=&quot;font-size: 20px;&quot;&gt;20 cm&lt;/font&gt;&lt;/b&gt;" style="text;html=1;strokeColor=none;fillColor=none;align=center;verticalAlign=middle;whiteSpace=wrap;rounded=0;strokeWidth=2;" vertex="1" parent="1">
                    <mxGeometry x="770" y="310" width="60" height="30" as="geometry"/>
                </mxCell>
                <mxCell id="8" value="" style="endArrow=blockThin;startArrow=blockThin;html=1;endSize=10;startSize=10;strokeWidth=3;startFill=1;endFill=1;strokeColor=#009900;" edge="1" parent="1">
                    <mxGeometry width="50" height="50" relative="1" as="geometry">
                        <mxPoint x="120" y="520" as="sourcePoint"/>
                        <mxPoint x="120" y="-40" as="targetPoint"/>
                    </mxGeometry>
                </mxCell>
                <mxCell id="9" value="&lt;b&gt;&lt;font color=&quot;#009900&quot; style=&quot;font-size: 20px;&quot;&gt;14.4 cm&lt;/font&gt;&lt;/b&gt;" style="text;html=1;strokeColor=none;fillColor=none;align=center;verticalAlign=middle;whiteSpace=wrap;rounded=0;strokeWidth=2;" vertex="1" parent="1">
                    <mxGeometry x="30" y="225" width="80" height="30" as="geometry"/>
                </mxCell>
                <mxCell id="10" value="" style="endArrow=none;dashed=1;html=1;strokeWidth=2;strokeColor=#009900;fontSize=20;fontColor=#000000;startSize=10;endSize=10;startArrow=none;" edge="1" parent="1">
                    <mxGeometry width="50" height="50" relative="1" as="geometry">
                        <mxPoint x="120" y="-40" as="sourcePoint"/>
                        <mxPoint x="360" y="-40" as="targetPoint"/>
                    </mxGeometry>
                </mxCell>
                <mxCell id="11" value="" style="endArrow=none;dashed=1;html=1;strokeWidth=2;strokeColor=#009900;fontSize=20;fontColor=#000000;startSize=10;endSize=10;entryX=0;entryY=1;entryDx=0;entryDy=0;" edge="1" parent="1" target="2">
                    <mxGeometry width="50" height="50" relative="1" as="geometry">
                        <mxPoint x="120" y="520" as="sourcePoint"/>
                        <mxPoint x="370" y="50" as="targetPoint"/>
                    </mxGeometry>
                </mxCell>
                <mxCell id="12" value="&lt;font style=&quot;font-size: 14px;&quot; color=&quot;#000000&quot;&gt;&lt;b&gt;10&lt;/b&gt;&lt;/font&gt;" style="text;html=1;strokeColor=none;fillColor=none;align=center;verticalAlign=middle;whiteSpace=wrap;rounded=0;strokeWidth=2;fontSize=20;fontColor=#009900;" vertex="1" parent="1">
                    <mxGeometry x="300" y="40" width="60" height="40" as="geometry"/>
                </mxCell>
                <mxCell id="13" value="&lt;font style=&quot;font-size: 14px;&quot; color=&quot;#000000&quot;&gt;&lt;b&gt;9&lt;/b&gt;&lt;/font&gt;" style="text;html=1;strokeColor=none;fillColor=none;align=center;verticalAlign=middle;whiteSpace=wrap;rounded=0;strokeWidth=2;fontSize=20;fontColor=#009900;" vertex="1" parent="1">
                    <mxGeometry x="300" y="80" width="60" height="40" as="geometry"/>
                </mxCell>
                <mxCell id="14" value="&lt;font style=&quot;font-size: 14px;&quot; color=&quot;#000000&quot;&gt;&lt;b&gt;8&lt;/b&gt;&lt;/font&gt;" style="text;html=1;strokeColor=none;fillColor=none;align=center;verticalAlign=middle;whiteSpace=wrap;rounded=0;strokeWidth=2;fontSize=20;fontColor=#009900;" vertex="1" parent="1">
                    <mxGeometry x="300" y="120" width="60" height="40" as="geometry"/>
                </mxCell>
                <mxCell id="15" value="&lt;font style=&quot;font-size: 14px;&quot; color=&quot;#000000&quot;&gt;&lt;b&gt;7&lt;/b&gt;&lt;/font&gt;" style="text;html=1;strokeColor=none;fillColor=none;align=center;verticalAlign=middle;whiteSpace=wrap;rounded=0;strokeWidth=2;fontSize=20;fontColor=#009900;" vertex="1" parent="1">
                    <mxGeometry x="300" y="160" width="60" height="40" as="geometry"/>
                </mxCell>
                <mxCell id="16" value="&lt;font style=&quot;font-size: 14px;&quot; color=&quot;#000000&quot;&gt;&lt;b&gt;6&lt;/b&gt;&lt;/font&gt;" style="text;html=1;strokeColor=none;fillColor=none;align=center;verticalAlign=middle;whiteSpace=wrap;rounded=0;strokeWidth=2;fontSize=20;fontColor=#009900;" vertex="1" parent="1">
                    <mxGeometry x="300" y="200" width="60" height="40" as="geometry"/>
                </mxCell>
                <mxCell id="17" value="&lt;font style=&quot;font-size: 14px;&quot; color=&quot;#000000&quot;&gt;&lt;b&gt;5&lt;/b&gt;&lt;/font&gt;" style="text;html=1;strokeColor=none;fillColor=none;align=center;verticalAlign=middle;whiteSpace=wrap;rounded=0;strokeWidth=2;fontSize=20;fontColor=#009900;" vertex="1" parent="1">
                    <mxGeometry x="300" y="240" width="60" height="40" as="geometry"/>
                </mxCell>
                <mxCell id="18" value="&lt;font style=&quot;font-size: 14px;&quot; color=&quot;#000000&quot;&gt;&lt;b&gt;4&lt;/b&gt;&lt;/font&gt;" style="text;html=1;strokeColor=none;fillColor=none;align=center;verticalAlign=middle;whiteSpace=wrap;rounded=0;strokeWidth=2;fontSize=20;fontColor=#009900;" vertex="1" parent="1">
                    <mxGeometry x="300" y="280" width="60" height="40" as="geometry"/>
                </mxCell>
                <mxCell id="19" value="&lt;font style=&quot;font-size: 14px;&quot; color=&quot;#000000&quot;&gt;&lt;b&gt;3&lt;/b&gt;&lt;/font&gt;" style="text;html=1;strokeColor=none;fillColor=none;align=center;verticalAlign=middle;whiteSpace=wrap;rounded=0;strokeWidth=2;fontSize=20;fontColor=#009900;" vertex="1" parent="1">
                    <mxGeometry x="300" y="320" width="60" height="40" as="geometry"/>
                </mxCell>
                <mxCell id="20" value="&lt;font style=&quot;font-size: 14px;&quot; color=&quot;#000000&quot;&gt;&lt;b&gt;2&lt;/b&gt;&lt;/font&gt;" style="text;html=1;strokeColor=none;fillColor=none;align=center;verticalAlign=middle;whiteSpace=wrap;rounded=0;strokeWidth=2;fontSize=20;fontColor=#009900;" vertex="1" parent="1">
                    <mxGeometry x="300" y="360" width="60" height="40" as="geometry"/>
                </mxCell>
                <mxCell id="21" value="&lt;font style=&quot;font-size: 14px;&quot; color=&quot;#000000&quot;&gt;&lt;b&gt;1&lt;/b&gt;&lt;/font&gt;" style="text;html=1;strokeColor=none;fillColor=none;align=center;verticalAlign=middle;whiteSpace=wrap;rounded=0;strokeWidth=2;fontSize=20;fontColor=#009900;" vertex="1" parent="1">
                    <mxGeometry x="300" y="400" width="60" height="40" as="geometry"/>
                </mxCell>
                <mxCell id="22" value="" style="ellipse;whiteSpace=wrap;html=1;aspect=fixed;strokeColor=#000000;strokeWidth=2;fontSize=14;fontColor=#000000;fillColor=#FFFFFF;" vertex="1" parent="1">
                    <mxGeometry x="460" y="40" width="40" height="40" as="geometry"/>
                </mxCell>
                <mxCell id="23" value="" style="ellipse;whiteSpace=wrap;html=1;aspect=fixed;strokeColor=#000000;strokeWidth=2;fontSize=14;fontColor=#000000;fillColor=#FFFFFF;" vertex="1" parent="1">
                    <mxGeometry x="460" y="400" width="40" height="40" as="geometry"/>
                </mxCell>
                <mxCell id="24" value="" style="ellipse;whiteSpace=wrap;html=1;aspect=fixed;strokeColor=#000000;strokeWidth=2;fontSize=14;fontColor=#000000;fillColor=#FFFFFF;" vertex="1" parent="1">
                    <mxGeometry x="460" y="110" width="40" height="40" as="geometry"/>
                </mxCell>
                <mxCell id="25" value="" style="ellipse;whiteSpace=wrap;html=1;aspect=fixed;strokeColor=#000000;strokeWidth=2;fontSize=14;fontColor=#000000;fillColor=#FFFFFF;" vertex="1" parent="1">
                    <mxGeometry x="460" y="330" width="40" height="40" as="geometry"/>
                </mxCell>
                <mxCell id="26" value="" style="ellipse;whiteSpace=wrap;html=1;aspect=fixed;strokeColor=#000000;strokeWidth=2;fontSize=14;fontColor=#000000;fillColor=#FFFFFF;" vertex="1" parent="1">
                    <mxGeometry x="460" y="180" width="40" height="40" as="geometry"/>
                </mxCell>
                <mxCell id="27" value="" style="ellipse;whiteSpace=wrap;html=1;aspect=fixed;strokeColor=#000000;strokeWidth=2;fontSize=14;fontColor=#000000;fillColor=#FFFFFF;" vertex="1" parent="1">
                    <mxGeometry x="460" y="255" width="40" height="40" as="geometry"/>
                </mxCell>
                <mxCell id="49" value="" style="endArrow=blockThin;startArrow=blockThin;html=1;endSize=10;startSize=10;strokeWidth=3;startFill=1;endFill=1;strokeColor=#009900;" edge="1" parent="1">
                    <mxGeometry width="50" height="50" relative="1" as="geometry">
                        <mxPoint x="360" y="-120" as="sourcePoint"/>
                        <mxPoint x="440" y="-120" as="targetPoint"/>
                    </mxGeometry>
                </mxCell>
                <mxCell id="50" value="" style="endArrow=none;dashed=1;html=1;strokeWidth=2;strokeColor=#009900;fontSize=20;fontColor=#000000;startSize=10;endSize=10;exitX=1;exitY=0;exitDx=0;exitDy=0;" edge="1" parent="1" source="12">
                    <mxGeometry width="50" height="50" relative="1" as="geometry">
                        <mxPoint x="210" y="50" as="sourcePoint"/>
                        <mxPoint x="360" y="-120" as="targetPoint"/>
                    </mxGeometry>
                </mxCell>
                <mxCell id="51" value="" style="endArrow=none;dashed=1;html=1;strokeWidth=2;strokeColor=#009900;fontSize=20;fontColor=#000000;startSize=10;endSize=10;exitX=1;exitY=0;exitDx=0;exitDy=0;" edge="1" parent="1" source="2">
                    <mxGeometry width="50" height="50" relative="1" as="geometry">
                        <mxPoint x="370" y="50" as="sourcePoint"/>
                        <mxPoint x="440" y="-120" as="targetPoint"/>
                    </mxGeometry>
                </mxCell>
                <mxCell id="52" value="" style="endArrow=none;dashed=1;html=1;strokeWidth=2;strokeColor=#009900;fontSize=20;fontColor=#000000;startSize=10;endSize=10;" edge="1" parent="1">
                    <mxGeometry width="50" height="50" relative="1" as="geometry">
                        <mxPoint x="560" y="-80" as="sourcePoint"/>
                        <mxPoint x="760" y="-80" as="targetPoint"/>
                    </mxGeometry>
                </mxCell>
                <mxCell id="53" value="" style="endArrow=none;dashed=1;html=1;strokeWidth=2;strokeColor=#009900;fontSize=20;fontColor=#000000;startSize=10;endSize=10;exitX=1;exitY=1;exitDx=0;exitDy=0;" edge="1" parent="1" source="3">
                    <mxGeometry width="50" height="50" relative="1" as="geometry">
                        <mxPoint x="570" y="10" as="sourcePoint"/>
                        <mxPoint x="760" y="720" as="targetPoint"/>
                    </mxGeometry>
                </mxCell>
                <mxCell id="54" value="" style="endArrow=none;dashed=1;html=1;strokeWidth=2;strokeColor=#009900;fontSize=20;fontColor=#000000;startSize=10;endSize=10;exitX=0;exitY=0;exitDx=0;exitDy=0;" edge="1" parent="1" source="3">
                    <mxGeometry width="50" height="50" relative="1" as="geometry">
                        <mxPoint x="370" y="50" as="sourcePoint"/>
                        <mxPoint x="240" y="-200" as="targetPoint"/>
                    </mxGeometry>
                </mxCell>
                <mxCell id="55" value="" style="endArrow=none;dashed=1;html=1;strokeWidth=2;strokeColor=#009900;fontSize=20;fontColor=#000000;startSize=10;endSize=10;exitX=1;exitY=0;exitDx=0;exitDy=0;" edge="1" parent="1" source="3">
                    <mxGeometry width="50" height="50" relative="1" as="geometry">
                        <mxPoint x="250" y="10.000000000000455" as="sourcePoint"/>
                        <mxPoint x="560" y="-200" as="targetPoint"/>
                    </mxGeometry>
                </mxCell>
                <mxCell id="56" value="&lt;b&gt;&lt;font color=&quot;#009900&quot; style=&quot;font-size: 20px;&quot;&gt;2.86 cm&lt;/font&gt;&lt;/b&gt;" style="text;html=1;strokeColor=none;fillColor=none;align=center;verticalAlign=middle;whiteSpace=wrap;rounded=0;strokeWidth=2;" vertex="1" parent="1">
                    <mxGeometry x="360" y="-160" width="80" height="30" as="geometry"/>
                </mxCell>
                <mxCell id="57" value="" style="ellipse;whiteSpace=wrap;html=1;aspect=fixed;strokeColor=#000000;strokeWidth=2;fontSize=14;fontColor=#000000;fillColor=#FF0000;" vertex="1" parent="1">
                    <mxGeometry x="270" y="-36.25" width="20" height="20" as="geometry"/>
                </mxCell>
                <mxCell id="60" value="" style="rounded=0;whiteSpace=wrap;html=1;fillColor=#FFFFFF;strokeColor=#000000;strokeWidth=2;" vertex="1" parent="1">
                    <mxGeometry x="390" y="40" width="20" height="400" as="geometry"/>
                </mxCell>
                <mxCell id="61" value="" style="endArrow=blockThin;startArrow=blockThin;html=1;endSize=10;startSize=10;strokeWidth=3;startFill=1;endFill=1;strokeColor=#009900;" edge="1" parent="1">
                    <mxGeometry width="50" height="50" relative="1" as="geometry">
                        <mxPoint x="200" y="440" as="sourcePoint"/>
                        <mxPoint x="200" y="40" as="targetPoint"/>
                    </mxGeometry>
                </mxCell>
                <mxCell id="62" value="&lt;b&gt;&lt;font color=&quot;#009900&quot; style=&quot;font-size: 20px;&quot;&gt;10 cm&lt;/font&gt;&lt;/b&gt;" style="text;html=1;strokeColor=none;fillColor=none;align=center;verticalAlign=middle;whiteSpace=wrap;rounded=0;strokeWidth=2;" vertex="1" parent="1">
                    <mxGeometry x="130" y="195" width="80" height="30" as="geometry"/>
                </mxCell>
                <mxCell id="63" value="" style="endArrow=none;dashed=1;html=1;strokeWidth=2;strokeColor=#009900;fontSize=20;fontColor=#000000;startSize=10;endSize=10;startArrow=none;entryX=0;entryY=0;entryDx=0;entryDy=0;" edge="1" parent="1" target="60">
                    <mxGeometry width="50" height="50" relative="1" as="geometry">
                        <mxPoint x="200" y="40" as="sourcePoint"/>
                        <mxPoint x="370" y="-30" as="targetPoint"/>
                    </mxGeometry>
                </mxCell>
                <mxCell id="64" value="" style="endArrow=none;dashed=1;html=1;strokeWidth=2;strokeColor=#009900;fontSize=20;fontColor=#000000;startSize=10;endSize=10;startArrow=none;entryX=0;entryY=0;entryDx=0;entryDy=0;" edge="1" parent="1">
                    <mxGeometry width="50" height="50" relative="1" as="geometry">
                        <mxPoint x="199.9999999999999" y="440" as="sourcePoint"/>
                        <mxPoint x="390" y="440.00000000000045" as="targetPoint"/>
                    </mxGeometry>
                </mxCell>
                <mxCell id="65" value="" style="rounded=0;whiteSpace=wrap;html=1;strokeColor=#000000;strokeWidth=2;fontSize=14;fontColor=#000000;fillColor=#666666;" vertex="1" parent="1">
                    <mxGeometry x="365" y="190" width="70" height="20" as="geometry"/>
                </mxCell>
                <mxCell id="66" value="" style="ellipse;whiteSpace=wrap;html=1;aspect=fixed;strokeColor=#000000;strokeWidth=2;fontSize=14;fontColor=#000000;fillColor=#FFFFFF;" vertex="1" parent="1">
                    <mxGeometry x="367.5" y="550" width="65" height="65" as="geometry"/>
                </mxCell>
                <mxCell id="70" value="&lt;font style=&quot;font-size: 14px;&quot; color=&quot;#000000&quot;&gt;&lt;b&gt;120&lt;/b&gt;&lt;/font&gt;" style="text;html=1;strokeColor=none;fillColor=none;align=center;verticalAlign=middle;whiteSpace=wrap;rounded=0;strokeWidth=2;fontSize=20;fontColor=#009900;" vertex="1" parent="1">
                    <mxGeometry x="550" y="360" width="60" height="40" as="geometry"/>
                </mxCell>
                <mxCell id="71" value="&lt;font style=&quot;font-size: 14px;&quot; color=&quot;#000000&quot;&gt;&lt;b&gt;60&lt;/b&gt;&lt;/font&gt;" style="text;html=1;strokeColor=none;fillColor=none;align=center;verticalAlign=middle;whiteSpace=wrap;rounded=0;strokeWidth=2;fontSize=20;fontColor=#009900;" vertex="1" parent="1">
                    <mxGeometry x="550" y="440" width="60" height="40" as="geometry"/>
                </mxCell>
                <mxCell id="72" value="&lt;font style=&quot;font-size: 14px;&quot; color=&quot;#000000&quot;&gt;&lt;b&gt;20&lt;/b&gt;&lt;/font&gt;" style="text;html=1;strokeColor=none;fillColor=none;align=center;verticalAlign=middle;whiteSpace=wrap;rounded=0;strokeWidth=2;fontSize=20;fontColor=#009900;" vertex="1" parent="1">
                    <mxGeometry x="550" y="510" width="60" height="40" as="geometry"/>
                </mxCell>
                <mxCell id="76" value="" style="ellipse;whiteSpace=wrap;html=1;aspect=fixed;strokeColor=#990000;strokeWidth=2;fontSize=14;fontColor=#000000;fillColor=none;" vertex="1" parent="1">
                    <mxGeometry x="375" y="557.5" width="50" height="50" as="geometry"/>
                </mxCell>
                <mxCell id="77" value="" style="ellipse;whiteSpace=wrap;html=1;aspect=fixed;strokeColor=#990000;strokeWidth=2;fontSize=14;fontColor=#000000;fillColor=none;" vertex="1" parent="1">
                    <mxGeometry x="382.5" y="565" width="35" height="35" as="geometry"/>
                </mxCell>
                <mxCell id="80" value="" style="rounded=0;whiteSpace=wrap;html=1;strokeColor=#000000;strokeWidth=2;fontSize=14;fontColor=#000000;fillColor=#FFFFFF;" vertex="1" parent="1">
                    <mxGeometry x="560" y="550" width="20" height="65" as="geometry"/>
                </mxCell>
                <mxCell id="88" value="" style="rounded=0;whiteSpace=wrap;html=1;strokeColor=#000000;strokeWidth=2;fontSize=14;fontColor=#000000;fillColor=#FF0000;" vertex="1" parent="1">
                    <mxGeometry x="560" y="342.5" width="12.5" height="25" as="geometry"/>
                </mxCell>
                <mxCell id="90" value="" style="rounded=0;whiteSpace=wrap;html=1;fillColor=#FFFFFF;strokeColor=#000000;strokeWidth=2;" vertex="1" parent="1">
                    <mxGeometry x="350" y="630" width="100" height="50" as="geometry"/>
                </mxCell>
                <mxCell id="91" value="" style="rounded=0;whiteSpace=wrap;html=1;fillColor=#FFFFFF;strokeColor=#000000;strokeWidth=2;" vertex="1" parent="1">
                    <mxGeometry x="560" width="20" height="40" as="geometry"/>
                </mxCell>
                <mxCell id="92" value="" style="rounded=0;whiteSpace=wrap;html=1;fillColor=#FFFFFF;strokeColor=#000000;strokeWidth=2;" vertex="1" parent="1">
                    <mxGeometry x="580" y="11.879999999999999" width="30" height="16.25" as="geometry"/>
                </mxCell>
                <mxCell id="95" value="" style="ellipse;whiteSpace=wrap;html=1;aspect=fixed;strokeColor=#000000;strokeWidth=2;fontSize=14;fontColor=#000000;fillColor=#FFFFFF;" vertex="1" parent="1">
                    <mxGeometry x="928.75" y="550" width="65" height="65" as="geometry"/>
                </mxCell>
                <mxCell id="96" value="" style="ellipse;whiteSpace=wrap;html=1;aspect=fixed;strokeColor=#009900;strokeWidth=2;fontSize=14;fontColor=#000000;fillColor=none;" vertex="1" parent="1">
                    <mxGeometry x="936.25" y="557.5" width="50" height="50" as="geometry"/>
                </mxCell>
                <mxCell id="97" value="" style="ellipse;whiteSpace=wrap;html=1;aspect=fixed;strokeColor=#009900;strokeWidth=2;fontSize=14;fontColor=#000000;fillColor=none;" vertex="1" parent="1">
                    <mxGeometry x="943.75" y="565" width="35" height="35" as="geometry"/>
                </mxCell>
                <mxCell id="102" value="&lt;font style=&quot;font-size: 14px;&quot; color=&quot;#000000&quot;&gt;&lt;b&gt;20&lt;/b&gt;&lt;/font&gt;" style="text;html=1;strokeColor=none;fillColor=none;align=center;verticalAlign=middle;whiteSpace=wrap;rounded=0;strokeWidth=2;fontSize=20;fontColor=#009900;" vertex="1" parent="1">
                    <mxGeometry x="931.25" y="500" width="60" height="40" as="geometry"/>
                </mxCell>
                <mxCell id="103" value="&lt;font style=&quot;font-size: 14px;&quot; color=&quot;#000000&quot;&gt;&lt;b&gt;60&lt;/b&gt;&lt;/font&gt;" style="text;html=1;strokeColor=none;fillColor=none;align=center;verticalAlign=middle;whiteSpace=wrap;rounded=0;strokeWidth=2;fontSize=20;fontColor=#009900;" vertex="1" parent="1">
                    <mxGeometry x="931.25" y="430" width="60" height="40" as="geometry"/>
                </mxCell>
                <mxCell id="104" value="&lt;font style=&quot;font-size: 14px;&quot; color=&quot;#000000&quot;&gt;&lt;b&gt;120&lt;/b&gt;&lt;/font&gt;" style="text;html=1;strokeColor=none;fillColor=none;align=center;verticalAlign=middle;whiteSpace=wrap;rounded=0;strokeWidth=2;fontSize=20;fontColor=#009900;" vertex="1" parent="1">
                    <mxGeometry x="931.25" y="360" width="60" height="40" as="geometry"/>
                </mxCell>
                <mxCell id="106" value="" style="endArrow=blockThin;startArrow=blockThin;html=1;endSize=10;startSize=10;strokeWidth=3;startFill=1;endFill=1;strokeColor=#009900;" edge="1" parent="1">
                    <mxGeometry width="50" height="50" relative="1" as="geometry">
                        <mxPoint x="880" y="-200" as="sourcePoint"/>
                        <mxPoint x="1040" y="-200" as="targetPoint"/>
                    </mxGeometry>
                </mxCell>
                <mxCell id="107" value="&lt;b&gt;&lt;font color=&quot;#009900&quot; style=&quot;font-size: 20px;&quot;&gt;8 cm&lt;/font&gt;&lt;/b&gt;" style="text;html=1;strokeColor=none;fillColor=none;align=center;verticalAlign=middle;whiteSpace=wrap;rounded=0;strokeWidth=2;" vertex="1" parent="1">
                    <mxGeometry x="931.25" y="-240" width="60" height="30" as="geometry"/>
                </mxCell>
                <mxCell id="108" value="" style="endArrow=none;dashed=1;html=1;strokeWidth=2;strokeColor=#009900;fontSize=20;fontColor=#000000;startSize=10;endSize=10;exitX=0;exitY=0;exitDx=0;exitDy=0;" edge="1" parent="1" source="105">
                    <mxGeometry width="50" height="50" relative="1" as="geometry">
                        <mxPoint x="490" y="-70.00000000000011" as="sourcePoint"/>
                        <mxPoint x="880" y="-200" as="targetPoint"/>
                    </mxGeometry>
                </mxCell>
                <mxCell id="109" value="" style="endArrow=none;dashed=1;html=1;strokeWidth=2;strokeColor=#009900;fontSize=20;fontColor=#000000;startSize=10;endSize=10;exitX=1;exitY=0;exitDx=0;exitDy=0;" edge="1" parent="1" source="105">
                    <mxGeometry width="50" height="50" relative="1" as="geometry">
                        <mxPoint x="810" y="-69.99999999999989" as="sourcePoint"/>
                        <mxPoint x="1040" y="-200" as="targetPoint"/>
                    </mxGeometry>
                </mxCell>
                <mxCell id="112" value="" style="ellipse;whiteSpace=wrap;html=1;aspect=fixed;strokeColor=#000000;strokeWidth=2;fontSize=14;fontColor=#000000;fillColor=#FFFFFF;" vertex="1" parent="1">
                    <mxGeometry x="945" y="6.25" width="27.5" height="27.5" as="geometry"/>
                </mxCell>
                <mxCell id="116" value="" style="endArrow=none;dashed=1;html=1;strokeWidth=2;strokeColor=#009900;fontSize=20;fontColor=#000000;startSize=10;endSize=10;exitX=1;exitY=0;exitDx=0;exitDy=0;entryX=0;entryY=0;entryDx=0;entryDy=0;" edge="1" parent="1" source="91" target="119">
                    <mxGeometry width="50" height="50" relative="1" as="geometry">
                        <mxPoint x="690" as="sourcePoint"/>
                        <mxPoint x="840" y="-10" as="targetPoint"/>
                    </mxGeometry>
                </mxCell>
                <mxCell id="117" value="" style="endArrow=none;dashed=1;html=1;strokeWidth=2;strokeColor=#009900;fontSize=20;fontColor=#000000;startSize=10;endSize=10;entryX=0;entryY=1;entryDx=0;entryDy=0;exitX=1;exitY=1;exitDx=0;exitDy=0;" edge="1" parent="1" source="91" target="119">
                    <mxGeometry width="50" height="50" relative="1" as="geometry">
                        <mxPoint x="690" y="70" as="sourcePoint"/>
                        <mxPoint x="962.5" y="70" as="targetPoint"/>
                    </mxGeometry>
                </mxCell>
                <mxCell id="118" value="&lt;b&gt;&lt;font color=&quot;#009900&quot; style=&quot;font-size: 20px;&quot;&gt;1.1 cm&lt;/font&gt;&lt;/b&gt;" style="text;html=1;strokeColor=none;fillColor=none;align=center;verticalAlign=middle;whiteSpace=wrap;rounded=0;strokeWidth=2;" vertex="1" parent="1">
                    <mxGeometry x="670" y="3.75" width="80" height="30" as="geometry"/>
                </mxCell>
                <mxCell id="120" value="" style="endArrow=blockThin;startArrow=blockThin;html=1;endSize=3;startSize=3;strokeWidth=3;startFill=1;endFill=1;strokeColor=#009900;" edge="1" parent="1">
                    <mxGeometry width="50" height="50" relative="1" as="geometry">
                        <mxPoint x="941.25" y="-100" as="sourcePoint"/>
                        <mxPoint x="978.75" y="-100" as="targetPoint"/>
                    </mxGeometry>
                </mxCell>
                <mxCell id="121" value="&lt;b&gt;&lt;font color=&quot;#009900&quot; style=&quot;font-size: 20px;&quot;&gt;1.1 cm&lt;/font&gt;&lt;/b&gt;" style="text;html=1;strokeColor=none;fillColor=none;align=center;verticalAlign=middle;whiteSpace=wrap;rounded=0;strokeWidth=2;" vertex="1" parent="1">
                    <mxGeometry x="921.25" y="-140" width="80" height="30" as="geometry"/>
                </mxCell>
                <mxCell id="122" value="" style="endArrow=none;dashed=1;html=1;strokeWidth=2;strokeColor=#009900;fontSize=20;fontColor=#000000;startSize=10;endSize=10;exitX=0;exitY=0;exitDx=0;exitDy=0;" edge="1" parent="1" source="119">
                    <mxGeometry width="50" height="50" relative="1" as="geometry">
                        <mxPoint x="828.75" y="-30" as="sourcePoint"/>
                        <mxPoint x="938.75" y="-100" as="targetPoint"/>
                    </mxGeometry>
                </mxCell>
                <mxCell id="123" value="" style="endArrow=blockThin;startArrow=blockThin;html=1;endSize=3;startSize=3;strokeWidth=3;startFill=1;endFill=1;strokeColor=#009900;" edge="1" parent="1">
                    <mxGeometry width="50" height="50" relative="1" as="geometry">
                        <mxPoint x="670" as="sourcePoint"/>
                        <mxPoint x="670" y="40" as="targetPoint"/>
                    </mxGeometry>
                </mxCell>
                <mxCell id="124" value="" style="endArrow=none;dashed=1;html=1;strokeWidth=2;strokeColor=#009900;fontSize=20;fontColor=#000000;startSize=10;endSize=10;exitX=1;exitY=0;exitDx=0;exitDy=0;" edge="1" parent="1" source="119">
                    <mxGeometry width="50" height="50" relative="1" as="geometry">
                        <mxPoint x="951.25" y="10" as="sourcePoint"/>
                        <mxPoint x="978.75" y="-100" as="targetPoint"/>
                    </mxGeometry>
                </mxCell>
                <mxCell id="133" value="&lt;font style=&quot;font-size: 10px;&quot;&gt;0&lt;/font&gt;" style="text;html=1;strokeColor=none;fillColor=none;align=center;verticalAlign=middle;whiteSpace=wrap;rounded=0;strokeWidth=2;fontSize=4;fontColor=#000000;" vertex="1" parent="1">
                    <mxGeometry x="948.75" y="40" width="20" height="20" as="geometry"/>
                </mxCell>
                <mxCell id="134" value="&lt;font style=&quot;font-size: 10px;&quot;&gt;8&lt;/font&gt;" style="text;html=1;strokeColor=none;fillColor=none;align=center;verticalAlign=middle;whiteSpace=wrap;rounded=0;strokeWidth=2;fontSize=4;fontColor=#000000;" vertex="1" parent="1">
                    <mxGeometry x="948.75" y="-20" width="20" height="20" as="geometry"/>
                </mxCell>
                <mxCell id="135" value="&lt;font style=&quot;font-size: 10px;&quot;&gt;4&lt;/font&gt;" style="text;html=1;strokeColor=none;fillColor=none;align=center;verticalAlign=middle;whiteSpace=wrap;rounded=0;strokeWidth=2;fontSize=4;fontColor=#000000;" vertex="1" parent="1">
                    <mxGeometry x="978.75" y="8.129999999999999" width="20" height="20" as="geometry"/>
                </mxCell>
                <mxCell id="136" value="&lt;font style=&quot;font-size: 10px;&quot;&gt;12&lt;/font&gt;" style="text;html=1;strokeColor=none;fillColor=none;align=center;verticalAlign=middle;whiteSpace=wrap;rounded=0;strokeWidth=2;fontSize=4;fontColor=#000000;" vertex="1" parent="1">
                    <mxGeometry x="918.75" y="8.749999999999998" width="20" height="20" as="geometry"/>
                </mxCell>
                <mxCell id="137" value="&lt;font style=&quot;font-size: 10px;&quot;&gt;1&lt;/font&gt;" style="text;html=1;strokeColor=none;fillColor=none;align=center;verticalAlign=middle;whiteSpace=wrap;rounded=0;strokeWidth=2;fontSize=4;fontColor=#000000;" vertex="1" parent="1">
                    <mxGeometry x="958.75" y="40" width="20" height="20" as="geometry"/>
                </mxCell>
                <mxCell id="138" value="&lt;font style=&quot;font-size: 10px;&quot;&gt;3&lt;/font&gt;" style="text;html=1;strokeColor=none;fillColor=none;align=center;verticalAlign=middle;whiteSpace=wrap;rounded=0;strokeWidth=2;fontSize=4;fontColor=#000000;" vertex="1" parent="1">
                    <mxGeometry x="978.75" y="20" width="20" height="20" as="geometry"/>
                </mxCell>
                <mxCell id="139" value="&lt;font style=&quot;font-size: 10px;&quot;&gt;2&lt;/font&gt;" style="text;html=1;strokeColor=none;fillColor=none;align=center;verticalAlign=middle;whiteSpace=wrap;rounded=0;strokeWidth=2;fontSize=4;fontColor=#000000;" vertex="1" parent="1">
                    <mxGeometry x="973.75" y="33.75" width="20" height="20" as="geometry"/>
                </mxCell>
                <mxCell id="140" value="&lt;font style=&quot;font-size: 10px;&quot;&gt;15&lt;/font&gt;" style="text;html=1;strokeColor=none;fillColor=none;align=center;verticalAlign=middle;whiteSpace=wrap;rounded=0;strokeWidth=2;fontSize=4;fontColor=#000000;" vertex="1" parent="1">
                    <mxGeometry x="936.25" y="40" width="20" height="20" as="geometry"/>
                </mxCell>
                <mxCell id="141" value="&lt;font style=&quot;font-size: 10px;&quot;&gt;13&lt;/font&gt;" style="text;html=1;strokeColor=none;fillColor=none;align=center;verticalAlign=middle;whiteSpace=wrap;rounded=0;strokeWidth=2;fontSize=4;fontColor=#000000;" vertex="1" parent="1">
                    <mxGeometry x="918.75" y="20" width="20" height="20" as="geometry"/>
                </mxCell>
                <mxCell id="142" value="&lt;font style=&quot;font-size: 10px;&quot;&gt;14&lt;/font&gt;" style="text;html=1;strokeColor=none;fillColor=none;align=center;verticalAlign=middle;whiteSpace=wrap;rounded=0;strokeWidth=2;fontSize=4;fontColor=#000000;" vertex="1" parent="1">
                    <mxGeometry x="921.25" y="33.75" width="20" height="20" as="geometry"/>
                </mxCell>
                <mxCell id="143" value="&lt;font style=&quot;font-size: 10px;&quot;&gt;11&lt;/font&gt;" style="text;html=1;strokeColor=none;fillColor=none;align=center;verticalAlign=middle;whiteSpace=wrap;rounded=0;strokeWidth=2;fontSize=4;fontColor=#000000;" vertex="1" parent="1">
                    <mxGeometry x="918.75" y="-10" width="20" height="30" as="geometry"/>
                </mxCell>
                <mxCell id="144" value="&lt;font style=&quot;font-size: 10px;&quot;&gt;5&lt;/font&gt;" style="text;html=1;strokeColor=none;fillColor=none;align=center;verticalAlign=middle;whiteSpace=wrap;rounded=0;strokeWidth=2;fontSize=4;fontColor=#000000;" vertex="1" parent="1">
                    <mxGeometry x="978.75" y="-10" width="20" height="30" as="geometry"/>
                </mxCell>
                <mxCell id="145" value="&lt;font style=&quot;font-size: 10px;&quot;&gt;6&lt;/font&gt;" style="text;html=1;strokeColor=none;fillColor=none;align=center;verticalAlign=middle;whiteSpace=wrap;rounded=0;strokeWidth=2;fontSize=4;fontColor=#000000;" vertex="1" parent="1">
                    <mxGeometry x="973.75" y="-16.25" width="20" height="20" as="geometry"/>
                </mxCell>
                <mxCell id="146" value="&lt;font style=&quot;font-size: 10px;&quot;&gt;7&lt;/font&gt;" style="text;html=1;strokeColor=none;fillColor=none;align=center;verticalAlign=middle;whiteSpace=wrap;rounded=0;strokeWidth=2;fontSize=4;fontColor=#000000;" vertex="1" parent="1">
                    <mxGeometry x="958.75" y="-20" width="20" height="20" as="geometry"/>
                </mxCell>
                <mxCell id="147" value="&lt;font style=&quot;font-size: 10px;&quot;&gt;9&lt;/font&gt;" style="text;html=1;strokeColor=none;fillColor=none;align=center;verticalAlign=middle;whiteSpace=wrap;rounded=0;strokeWidth=2;fontSize=4;fontColor=#000000;" vertex="1" parent="1">
                    <mxGeometry x="938.75" y="-20" width="20" height="20" as="geometry"/>
                </mxCell>
                <mxCell id="148" value="&lt;font style=&quot;font-size: 10px;&quot;&gt;10&lt;/font&gt;" style="text;html=1;strokeColor=none;fillColor=none;align=center;verticalAlign=middle;whiteSpace=wrap;rounded=0;strokeWidth=2;fontSize=4;fontColor=#000000;" vertex="1" parent="1">
                    <mxGeometry x="925" y="-21.25" width="20" height="30" as="geometry"/>
                </mxCell>
                <mxCell id="150" value="&lt;font style=&quot;font-size: 14px;&quot; color=&quot;#000000&quot;&gt;&lt;b&gt;soignant&lt;/b&gt;&lt;/font&gt;" style="text;html=1;strokeColor=none;fillColor=none;align=center;verticalAlign=middle;whiteSpace=wrap;rounded=0;strokeWidth=2;fontSize=20;fontColor=#009900;" vertex="1" parent="1">
                    <mxGeometry x="460" y="670" width="60" height="40" as="geometry"/>
                </mxCell>
                <mxCell id="151" value="&lt;font style=&quot;font-size: 14px;&quot; color=&quot;#000000&quot;&gt;&lt;b&gt;aidant&lt;/b&gt;&lt;/font&gt;" style="text;html=1;strokeColor=none;fillColor=none;align=center;verticalAlign=middle;whiteSpace=wrap;rounded=0;strokeWidth=2;fontSize=20;fontColor=#009900;" vertex="1" parent="1">
                    <mxGeometry x="280" y="670" width="60" height="40" as="geometry"/>
                </mxCell>
                <mxCell id="152" value="&lt;font style=&quot;font-size: 14px;&quot; color=&quot;#000000&quot;&gt;&lt;b&gt;patient&lt;/b&gt;&lt;/font&gt;" style="text;html=1;strokeColor=none;fillColor=none;align=center;verticalAlign=middle;whiteSpace=wrap;rounded=0;strokeWidth=2;fontSize=20;fontColor=#009900;" vertex="1" parent="1">
                    <mxGeometry x="367.5" y="670" width="60" height="40" as="geometry"/>
                </mxCell>
                <mxCell id="153" value="" style="endArrow=blockThin;startArrow=blockThin;html=1;endSize=3;startSize=3;strokeWidth=3;startFill=1;endFill=1;strokeColor=#009900;" edge="1" parent="1">
                    <mxGeometry width="50" height="50" relative="1" as="geometry">
                        <mxPoint x="580" y="680" as="sourcePoint"/>
                        <mxPoint x="580" y="630" as="targetPoint"/>
                    </mxGeometry>
                </mxCell>
                <mxCell id="154" value="" style="endArrow=blockThin;startArrow=blockThin;html=1;endSize=3;startSize=3;strokeWidth=3;startFill=1;endFill=1;strokeColor=#009900;" edge="1" parent="1">
                    <mxGeometry width="50" height="50" relative="1" as="geometry">
                        <mxPoint x="350" y="760" as="sourcePoint"/>
                        <mxPoint x="450" y="760" as="targetPoint"/>
                    </mxGeometry>
                </mxCell>
                <mxCell id="155" value="&lt;font color=&quot;#009900&quot;&gt;&lt;span style=&quot;font-size: 20px;&quot;&gt;&lt;b&gt;2.55 cm&lt;/b&gt;&lt;/span&gt;&lt;/font&gt;" style="text;html=1;strokeColor=none;fillColor=none;align=center;verticalAlign=middle;whiteSpace=wrap;rounded=0;strokeWidth=2;" vertex="1" parent="1">
                    <mxGeometry x="365" y="770" width="80" height="30" as="geometry"/>
                </mxCell>
                <mxCell id="156" value="&lt;font color=&quot;#009900&quot;&gt;&lt;span style=&quot;font-size: 20px;&quot;&gt;&lt;b&gt;1.37 cm&lt;/b&gt;&lt;/span&gt;&lt;/font&gt;" style="text;html=1;strokeColor=none;fillColor=none;align=center;verticalAlign=middle;whiteSpace=wrap;rounded=0;strokeWidth=2;" vertex="1" parent="1">
                    <mxGeometry x="590" y="640" width="80" height="30" as="geometry"/>
                </mxCell>
                <mxCell id="157" value="" style="endArrow=none;dashed=1;html=1;strokeWidth=2;strokeColor=#009900;fontSize=20;fontColor=#000000;startSize=10;endSize=10;exitX=1;exitY=0;exitDx=0;exitDy=0;" edge="1" parent="1" source="90">
                    <mxGeometry width="50" height="50" relative="1" as="geometry">
                        <mxPoint x="570" y="730.0000000000002" as="sourcePoint"/>
                        <mxPoint x="580" y="630" as="targetPoint"/>
                    </mxGeometry>
                </mxCell>
                <mxCell id="158" value="" style="endArrow=none;dashed=1;html=1;strokeWidth=2;strokeColor=#009900;fontSize=20;fontColor=#000000;startSize=10;endSize=10;exitX=1;exitY=1;exitDx=0;exitDy=0;" edge="1" parent="1" source="90">
                    <mxGeometry width="50" height="50" relative="1" as="geometry">
                        <mxPoint x="460" y="640" as="sourcePoint"/>
                        <mxPoint x="580" y="680" as="targetPoint"/>
                    </mxGeometry>
                </mxCell>
                <mxCell id="159" value="" style="endArrow=none;dashed=1;html=1;strokeWidth=2;strokeColor=#009900;fontSize=20;fontColor=#000000;startSize=10;endSize=10;exitX=1;exitY=1;exitDx=0;exitDy=0;" edge="1" parent="1" source="90">
                    <mxGeometry width="50" height="50" relative="1" as="geometry">
                        <mxPoint x="460" y="690" as="sourcePoint"/>
                        <mxPoint x="450" y="760" as="targetPoint"/>
                    </mxGeometry>
                </mxCell>
                <mxCell id="160" value="" style="endArrow=none;dashed=1;html=1;strokeWidth=2;strokeColor=#009900;fontSize=20;fontColor=#000000;startSize=10;endSize=10;exitX=0;exitY=1;exitDx=0;exitDy=0;" edge="1" parent="1" source="90">
                    <mxGeometry width="50" height="50" relative="1" as="geometry">
                        <mxPoint x="460" y="690" as="sourcePoint"/>
                        <mxPoint x="350" y="760" as="targetPoint"/>
                    </mxGeometry>
                </mxCell>
                <mxCell id="162" value="" style="ellipse;whiteSpace=wrap;html=1;strokeColor=#000000;strokeWidth=2;fontSize=10;fontColor=#000000;fillColor=#666666;" vertex="1" parent="1">
                    <mxGeometry x="367.5" y="646.25" width="65" height="17.5" as="geometry"/>
                </mxCell>
                <mxCell id="163" value="" style="ellipse;whiteSpace=wrap;html=1;aspect=fixed;strokeColor=#000000;strokeWidth=2;fontSize=14;fontColor=#000000;fillColor=#FF0000;" vertex="1" parent="1">
                    <mxGeometry x="951.25" y="345" width="20" height="20" as="geometry"/>
                </mxCell>
                <mxCell id="164" value="" style="ellipse;whiteSpace=wrap;html=1;aspect=fixed;strokeColor=#000000;strokeWidth=2;fontSize=14;fontColor=#000000;fillColor=#FF0000;" vertex="1" parent="1">
                    <mxGeometry x="951.25" y="415" width="20" height="20" as="geometry"/>
                </mxCell>
                <mxCell id="165" value="" style="ellipse;whiteSpace=wrap;html=1;aspect=fixed;strokeColor=#000000;strokeWidth=2;fontSize=14;fontColor=#000000;fillColor=#FF0000;" vertex="1" parent="1">
                    <mxGeometry x="951.25" y="485" width="20" height="20" as="geometry"/>
                </mxCell>
                <mxCell id="166" value="" style="rounded=0;whiteSpace=wrap;html=1;strokeColor=#000000;strokeWidth=2;fontSize=14;fontColor=#000000;fillColor=#FF0000;" vertex="1" parent="1">
                    <mxGeometry x="560" y="412.5" width="12.5" height="25" as="geometry"/>
                </mxCell>
                <mxCell id="167" value="" style="rounded=0;whiteSpace=wrap;html=1;strokeColor=#000000;strokeWidth=2;fontSize=14;fontColor=#000000;fillColor=#FF0000;" vertex="1" parent="1">
                    <mxGeometry x="560" y="482.5" width="12.5" height="25" as="geometry"/>
                </mxCell>
            </root>
        </mxGraphModel>
    </diagram>
</mxfile>